<svg width="135" height="135" viewBox="0 0 135 135" fill="none" xmlns="http://www.w3.org/2000/svg">
<path d="M0 48C0 21.4903 21.4903 0 48 0H103C120.673 0 135 14.3269 135 32V87C135 113.51 113.51 135 87 135H0V48Z" fill="#FF5757"/>
<path d="M100.337 87.6V37.65C100.337 30.9 95.0297 25.5 88.396 25.5H73.802V18.75H87.0693V12H47.2673V18.75H60.5347V25.5H45.9406C39.3069 25.5 34 30.9 34 37.65V87.6C34 94.35 39.3069 99.75 45.9406 99.75H47.2673L42.6238 106.5H34V113.25H38.6436L34 120H47.2673L51.2475 113.25H83.7525L87.7327 120H101L96.3564 113.25H100.337V106.5H91.7129L87.0693 99.75H88.396C95.0297 99.75 100.337 94.35 100.337 87.6ZM40.6337 38.325C40.6337 34.95 43.2871 32.25 46.604 32.25H87.0693C91.0495 32.25 93.703 34.95 93.703 38.325V52.5C93.703 56.55 91.0495 59.25 87.7327 59.25H46.604C43.2871 59.25 40.6337 56.55 40.6337 53.175V38.325ZM40.6337 86.25C40.6337 82.2 43.2871 79.5 47.2673 79.5C51.2475 79.5 53.901 82.2 53.901 86.25C53.901 90.3 51.2475 93 47.2673 93C43.2871 93 40.6337 90.3 40.6337 86.25ZM79.7723 106.5H54.5644L58.5446 99.75H75.7921L79.7723 106.5ZM80.4356 86.25C80.4356 82.2 83.0891 79.5 87.0693 79.5C91.0495 79.5 93.703 82.2 93.703 86.25C93.703 90.3 91.0495 93 87.0693 93C83.0891 93 80.4356 90.3 80.4356 86.25Z" fill="white"/>
</svg>
