<svg width="29" height="28" viewBox="0 0 29 28" fill="none" xmlns="http://www.w3.org/2000/svg">
<path fill-rule="evenodd" clip-rule="evenodd" d="M28.6683 0.204492C28.7721 0.289563 28.8557 0.396615 28.913 0.517918C28.9704 0.639221 29.0001 0.771748 29 0.905929V24.4684C28.9999 24.6779 28.9272 24.8808 28.7944 25.0427C28.6616 25.2046 28.4767 25.3155 28.2714 25.3566L19.2089 27.1691C19.0916 27.1924 18.9709 27.1924 18.8536 27.1691L9.96875 25.3928L1.08387 27.1691C0.952448 27.1953 0.816831 27.1921 0.686794 27.1597C0.556756 27.1272 0.435536 27.0663 0.331868 26.9814C0.228199 26.8964 0.144662 26.7895 0.0872751 26.6684C0.0298885 26.5473 8.09331e-05 26.415 0 26.2809L0 2.71843C0.00012648 2.509 0.0727829 2.30608 0.205616 2.14417C0.338449 1.98226 0.52326 1.87135 0.728625 1.8303L9.79113 0.0178044C9.90838 -0.00563257 10.0291 -0.00563257 10.1464 0.0178044L19.0312 1.79405L27.9161 0.0178044C28.0475 -0.00862944 28.1831 -0.00559623 28.3132 0.0266856C28.4433 0.0589674 28.5645 0.119694 28.6683 0.204492ZM18.125 3.46155L10.875 2.01155V23.7253L18.125 25.1753V3.46155ZM19.9375 25.1753L27.1875 23.7253V2.01155L19.9375 3.46155V25.1753ZM9.0625 23.7253V2.01155L1.8125 3.46155V25.1753L9.0625 23.7253Z" fill="#FA5858"/>
</svg>
