<svg width="31" height="24" viewBox="0 0 31 24" fill="none" xmlns="http://www.w3.org/2000/svg">
<path d="M0.97575 18V0.959999H8.65575C9.45575 0.959999 10.1918 1.128 10.8638 1.464C11.5518 1.8 12.1438 2.24 12.6398 2.784C13.1358 3.328 13.5198 3.944 13.7918 4.632C14.0798 5.32 14.2238 6.016 14.2238 6.72C14.2238 7.248 14.1598 7.76 14.0318 8.256C13.9038 8.736 13.7198 9.192 13.4798 9.624C13.2398 10.056 12.9438 10.448 12.5918 10.8C12.2558 11.136 11.8718 11.424 11.4398 11.664L15.1838 18H10.7438L7.47975 12.504H4.91175V18H0.97575ZM4.91175 9.072H8.51175C8.97575 9.072 9.37575 8.856 9.71175 8.424C10.0478 7.976 10.2158 7.408 10.2158 6.72C10.2158 6.016 10.0238 5.456 9.63975 5.04C9.25575 4.624 8.83975 4.416 8.39175 4.416H4.91175V9.072ZM24.5927 18.24C23.6327 18.24 22.8007 18.04 22.0967 17.64C21.3927 17.24 20.8487 16.68 20.4647 15.96V23.112H16.6247V5.4H19.9607V7.44C20.4247 6.72 21.0007 6.16 21.6887 5.76C22.3927 5.36 23.2247 5.16 24.1847 5.16C25.0327 5.16 25.8087 5.328 26.5127 5.664C27.2327 6 27.8487 6.464 28.3607 7.056C28.8887 7.632 29.2967 8.32 29.5847 9.12C29.8887 9.904 30.0407 10.752 30.0407 11.664C30.0407 12.608 29.9047 13.48 29.6327 14.28C29.3607 15.08 28.9847 15.776 28.5047 16.368C28.0247 16.944 27.4487 17.4 26.7767 17.736C26.1047 18.072 25.3767 18.24 24.5927 18.24ZM23.2967 15C23.7127 15 24.0887 14.912 24.4247 14.736C24.7767 14.544 25.0807 14.296 25.3367 13.992C25.5927 13.688 25.7847 13.336 25.9127 12.936C26.0567 12.52 26.1287 12.088 26.1287 11.64C26.1287 11.176 26.0487 10.752 25.8887 10.368C25.7447 9.968 25.5367 9.624 25.2647 9.336C25.0087 9.048 24.6887 8.824 24.3047 8.664C23.9367 8.504 23.5367 8.424 23.1047 8.424C22.5767 8.424 22.0647 8.584 21.5687 8.904C21.0887 9.208 20.7207 9.624 20.4647 10.152V12.744C20.7207 13.384 21.1047 13.92 21.6167 14.352C22.1447 14.784 22.7047 15 23.2967 15Z" fill="#FF5757"/>
</svg>
