<svg width="23" height="24" viewBox="0 0 23 24" fill="none" xmlns="http://www.w3.org/2000/svg">
<path d="M10.9227 2.28571C10.3178 3.73266 10.1874 5.33231 10.5501 6.85714H2.3V11.4286H13.8402C15.0327 12.1771 16.4146 12.5735 17.825 12.5714C18.8118 12.5728 19.789 12.3793 20.7 12.0023V19.4286C20.7 20.0348 20.4577 20.6162 20.0263 21.0448C19.595 21.4735 19.01 21.7143 18.4 21.7143H16.33L18.4 23.4286V24H2.3V23.4286L4.37 21.7143H2.3C1.69 21.7143 1.10499 21.4735 0.673654 21.0448C0.242321 20.6162 0 20.0348 0 19.4286V6.85714C0 5.64472 0.484641 4.48196 1.34731 3.62465C2.20998 2.76735 3.38 2.28571 4.6 2.28571H10.9227ZM10.35 14.8571C9.74 14.8571 9.15499 15.098 8.72365 15.5266C8.29232 15.9553 8.05 16.5366 8.05 17.1429C8.05 17.7491 8.29232 18.3304 8.72365 18.7591C9.15499 19.1878 9.74 19.4286 10.35 19.4286C10.96 19.4286 11.545 19.1878 11.9763 18.7591C12.4077 18.3304 12.65 17.7491 12.65 17.1429C12.65 16.5366 12.4077 15.9553 11.9763 15.5266C11.545 15.098 10.96 14.8571 10.35 14.8571ZM17.825 0C19.1975 0 20.5138 0.541835 21.4843 1.50631C22.4548 2.47078 23 3.77889 23 5.14286C23 6.50683 22.4548 7.81493 21.4843 8.77941C20.5138 9.74388 19.1975 10.2857 17.825 10.2857C16.4525 10.2857 15.1362 9.74388 14.1657 8.77941C13.1952 7.81493 12.65 6.50683 12.65 5.14286C12.65 3.77889 13.1952 2.47078 14.1657 1.50631C15.1362 0.541835 16.4525 0 17.825 0ZM17.825 5.90514C17.2603 5.90514 16.744 6.10743 16.3426 6.44229L16.1989 6.57371L17.825 8.19086L19.4499 6.57257C19.2366 6.36055 18.9832 6.19246 18.7044 6.07793C18.4256 5.9634 18.1267 5.90468 17.825 5.90514ZM17.825 2.85714C16.4957 2.85516 15.2132 3.34531 14.2278 4.232L14.0289 4.42057L15.1144 5.49714C15.4699 5.14273 15.8924 4.86164 16.3576 4.67002C16.8228 4.4784 17.3215 4.38003 17.825 4.38057C18.7569 4.37917 19.6572 4.71655 20.3561 5.32914L20.5355 5.49714L21.62 4.41943C21.1222 3.92338 20.5307 3.53 19.8794 3.26189C19.2281 2.99378 18.5299 2.85623 17.825 2.85714Z" fill="#747474"/>
</svg>
