<svg width="19" height="21" viewBox="0 0 19 21" fill="none" xmlns="http://www.w3.org/2000/svg">
<path d="M7 2C3.5 2 0 2.44737 0 5.57895V14.0789C0 15.8058 1.37375 17.2105 3.0625 17.2105L1.75 18.5526V19H3.5L5.25 17.2105H8.75L10.5 19H12.25V18.5526L10.9375 17.2105C12.6263 17.2105 14 15.8058 14 14.0789V5.57895C14 2.44737 10.5 2 7 2ZM3.0625 15.4211C2.33625 15.4211 1.75 14.8216 1.75 14.0789C1.75 13.3363 2.33625 12.7368 3.0625 12.7368C3.78875 12.7368 4.375 13.3363 4.375 14.0789C4.375 14.8216 3.78875 15.4211 3.0625 15.4211ZM6.125 9.15789H1.75V5.57895H6.125V9.15789ZM10.9375 15.4211C10.2113 15.4211 9.625 14.8216 9.625 14.0789C9.625 13.3363 10.2113 12.7368 10.9375 12.7368C11.6637 12.7368 12.25 13.3363 12.25 14.0789C12.25 14.8216 11.6637 15.4211 10.9375 15.4211ZM12.25 9.15789H7.875V5.57895H12.25V9.15789Z" fill="white"/>
<path d="M5 0V1.4H17.6V18.2H12.7V21H19V0H5Z" fill="white"/>
</svg>
