<svg width="38" height="38" viewBox="0 0 38 38" fill="none" xmlns="http://www.w3.org/2000/svg">
<rect width="38" height="38" rx="8" fill="#38B2AC"/>
<path d="M14.5 11C10.25 11 6 11.5526 6 15.4211V25.9211C6 28.0542 7.66813 29.7895 9.71875 29.7895L8.125 31.4474V32H10.25L12.375 29.7895H16.625L18.75 32H20.875V31.4474L19.2812 29.7895C21.3319 29.7895 23 28.0542 23 25.9211V15.4211C23 11.5526 18.75 11 14.5 11ZM9.71875 27.5789C8.83687 27.5789 8.125 26.8384 8.125 25.9211C8.125 25.0037 8.83687 24.2632 9.71875 24.2632C10.6006 24.2632 11.3125 25.0037 11.3125 25.9211C11.3125 26.8384 10.6006 27.5789 9.71875 27.5789ZM13.4375 19.8421H8.125V15.4211H13.4375V19.8421ZM19.2812 27.5789C18.3994 27.5789 17.6875 26.8384 17.6875 25.9211C17.6875 25.0037 18.3994 24.2632 19.2812 24.2632C20.1631 24.2632 20.875 25.0037 20.875 25.9211C20.875 26.8384 20.1631 27.5789 19.2812 27.5789ZM20.875 19.8421H15.5625V15.4211H20.875V19.8421Z" fill="#F8F8F8"/>
<path d="M15 7V8.66667H30.3V28.6667H24.35V32H32V7H15Z" fill="#F8F8F8"/>
</svg>
