<svg width="22" height="25" viewBox="0 0 22 25" fill="none" xmlns="http://www.w3.org/2000/svg">
<path d="M10.5263 0C5.26316 0 0 0.657895 0 5.26316V17.7632C0 20.3026 2.06579 22.3684 4.60526 22.3684L2.63158 24.3421V25H5.56579L8.19737 22.3684H13.1579L15.7895 25H18.4211V24.3421L16.4474 22.3684C18.9868 22.3684 21.0526 20.3026 21.0526 17.7632V5.26316C21.0526 0.657895 16.3421 0 10.5263 0ZM4.60526 19.7368C3.51316 19.7368 2.63158 18.8553 2.63158 17.7632C2.63158 16.6711 3.51316 15.7895 4.60526 15.7895C5.69737 15.7895 6.57895 16.6711 6.57895 17.7632C6.57895 18.8553 5.69737 19.7368 4.60526 19.7368ZM9.21053 10.5263H2.63158V5.26316H9.21053V10.5263ZM11.8421 10.5263V5.26316H18.4211V10.5263H11.8421ZM16.4474 19.7368C15.3553 19.7368 14.4737 18.8553 14.4737 17.7632C14.4737 16.6711 15.3553 15.7895 16.4474 15.7895C17.5395 15.7895 18.4211 16.6711 18.4211 17.7632C18.4211 18.8553 17.5395 19.7368 16.4474 19.7368Z" fill="#E30A16"/>
</svg>
