<svg width="19" height="19" viewBox="0 0 19 19" fill="none" xmlns="http://www.w3.org/2000/svg">
<path fill-rule="evenodd" clip-rule="evenodd" d="M12.897 14.312C11.4988 15.4054 9.77498 15.9996 8 16C3.589 16 0 12.411 0 8C0 3.589 3.589 0 8 0C12.411 0 16 3.589 16 8C15.9996 9.77544 15.405 11.4997 14.311 12.898L18.707 17.294L17.293 18.708L12.897 14.312ZM14 8C14 4.691 11.309 2 8 2C4.691 2 2 4.691 2 8C2 11.309 4.691 14 8 14C11.309 14 14 11.309 14 8ZM10 8.00002C10 7.46803 9.791 6.96603 9.412 6.58603C8.656 5.83203 7.346 5.83003 6.586 6.58803L5.174 5.17202C6.687 3.66002 9.312 3.66002 10.826 5.17202C11.1988 5.54245 11.4946 5.9831 11.6961 6.46851C11.8976 6.95392 12.0009 7.47445 12 8.00002H10Z" fill="black"/>
</svg>
